<svg width="1140" height="374" viewBox="0 0 1140 374" fill="none" xmlns="http://www.w3.org/2000/svg">
<g clip-path="url(#clip0_3_14)">
<path d="M152.413 272.415C118.205 270.708 103.664 246.764 106.227 221.963C108.789 193.741 131.023 178.345 151.548 178.343C153.258 178.343 154.968 178.343 157.534 178.342C180.625 180.905 198.586 203.138 196.88 238.202C194.32 290.369 162.682 331.422 113.938 348.532L106.24 334.85C139.59 316.887 157.547 292.939 152.413 272.415Z" fill="white"/>
<path d="M120.448 81.3852C138.864 64.7741 166.009 66.7785 182.048 84.5595C199.804 104.246 198.435 130.818 180.019 147.429C160.968 164.613 134.458 162.036 117.274 142.985C101.236 125.204 102.032 97.9962 120.448 81.3852Z" fill="white"/>
</g>
<path d="M260.24 93.5331C258.634 91.0098 254.276 90.551 251.523 90.551V87.1102H285.244L332.728 220.616L375.165 87.1102H409.115L409.344 90.551C406.591 90.551 402.004 91.0098 400.398 93.5331C395.351 101.332 396.728 146.293 396.728 175.655C396.728 207.311 395.351 245.16 400.398 252.96C402.004 255.483 406.591 255.942 409.344 255.942L409.115 259.383H366.677V255.942C369.43 255.942 373.789 255.483 375.394 252.96C380.441 245.619 379.294 207.082 379.294 175.426C379.294 152.257 379.982 116.702 377.688 101.103L332.039 245.39L325.617 258.465L271.022 105.232L271.48 173.82C271.48 205.476 270.104 245.39 275.151 253.189C276.756 255.712 281.344 256.171 284.097 256.171L283.867 259.612H251.523V256.171C254.276 256.171 258.634 255.712 260.24 253.189C265.287 245.849 264.14 205.246 264.14 173.591C264.14 145.146 265.287 101.103 260.24 93.5331ZM485.547 163.497C483.941 150.881 476.83 136.429 461.002 136.429C442.88 136.429 436.916 156.616 434.622 171.297H477.977C482.794 171.297 486.005 167.856 485.547 163.497ZM500.228 176.573H433.934C433.016 183.225 433.016 189.418 433.016 194.465C433.016 225.203 443.109 254.336 464.902 254.336C482.335 254.336 496.787 236.902 499.31 220.616L504.127 221.304C501.145 244.013 483.253 263.741 459.396 263.741C430.034 263.741 412.83 234.15 412.83 194.465C412.83 156.616 431.41 130.465 459.626 130.465C483.253 130.465 502.063 144.458 504.586 171.297C504.816 174.049 502.98 176.573 500.228 176.573ZM583.217 163.497C581.611 150.881 574.5 136.429 558.672 136.429C540.55 136.429 534.586 156.616 532.292 171.297H575.647C580.464 171.297 583.676 167.856 583.217 163.497ZM597.898 176.573H531.604C530.687 183.225 530.687 189.418 530.687 194.465C530.687 225.203 540.78 254.336 562.572 254.336C580.006 254.336 594.457 236.902 596.98 220.616L601.798 221.304C598.816 244.013 580.923 263.741 557.066 263.741C527.704 263.741 510.5 234.15 510.5 194.465C510.5 156.616 529.081 130.465 557.296 130.465C580.923 130.465 599.733 144.458 602.256 171.297C602.486 174.049 600.651 176.573 597.898 176.573ZM656.984 141.017H635.651C635.192 172.214 634.733 200.659 635.192 231.856C635.421 246.307 639.78 253.419 646.432 253.419C650.332 253.419 655.149 251.125 660.425 246.307L661.343 252.501C654.92 258.924 646.432 262.135 638.633 262.135C628.081 262.135 618.905 256.171 618.217 243.784C616.611 223.368 618.676 156.157 615.006 142.852C612.253 140.329 605.142 141.246 599.636 141.017V135.512C612.253 135.741 628.998 126.565 632.21 106.15L636.11 105.92L635.651 135.053V135.512H657.213L656.984 141.017ZM761.868 178.178C762.097 203.182 761.409 246.078 765.538 253.419C766.685 255.483 771.043 256.171 774.025 256.401V259.612H732.735V256.401C735.717 256.171 740.076 255.483 741.222 253.419C745.122 246.307 744.663 217.634 744.663 208.229C744.663 198.135 744.434 177.72 744.205 171.067C743.516 149.963 733.194 143.54 724.936 143.54C714.613 143.77 699.015 153.634 695.115 177.031L694.886 208.229C694.656 217.634 694.427 246.307 698.097 253.419C699.244 255.483 703.602 256.171 706.584 256.401V259.612H665.524V256.401C668.506 256.171 672.864 255.483 674.011 253.419C677.681 246.307 677.452 217.634 677.452 208.229C677.452 180.472 678.14 154.551 673.782 145.146C672.864 143.77 671.717 143.311 670.111 143.311C667.359 143.311 663.688 144.917 660.936 143.999L662.312 140.329C671.946 139.411 684.563 134.365 695.574 134.365L695.344 159.598C701.997 145.605 714.613 132.3 731.359 132.071C746.269 132.071 758.886 141.017 761.409 161.662C767.602 146.981 780.678 132.3 798.341 132.071C813.939 132.071 827.015 141.935 828.62 164.185C829.538 180.702 827.473 244.243 832.52 253.419C833.667 255.483 838.025 256.171 841.007 256.401V259.612H799.717V256.401C802.699 256.171 807.058 255.483 808.205 253.419C812.104 246.307 811.645 217.634 811.645 208.229C811.645 198.135 811.416 177.72 811.187 171.067C810.498 149.963 800.176 143.54 791.918 143.54C781.366 143.77 765.538 153.863 761.868 178.178ZM914.427 226.35C915.344 214.651 914.656 202.035 914.656 190.107C914.656 189.189 914.656 188.272 914.656 187.354C903.416 206.623 867.861 209.605 866.255 233.462C865.337 245.619 874.054 251.813 885.524 251.813C900.434 251.813 912.362 241.261 914.427 226.35ZM914.197 243.096C905.481 255.483 893.552 262.365 878.183 262.365C861.667 262.365 845.839 253.648 846.527 234.379C847.904 202.035 900.205 205.246 914.656 177.949C914.427 159.139 912.362 137.576 891.258 137.806C869.007 137.806 866.484 157.763 865.796 176.573C863.502 180.013 859.144 180.931 855.244 180.931C851.344 180.931 847.674 178.408 847.674 174.737C847.674 148.587 868.778 132.3 893.323 132.3C914.197 132.3 930.484 145.146 932.09 166.938C932.319 171.526 932.319 176.343 932.319 180.931C932.319 192.859 930.714 242.867 935.99 250.436C936.907 251.813 938.054 252.042 939.66 252.042C941.954 252.042 944.248 251.354 946.771 251.354C947.459 251.354 948.147 251.354 948.835 251.583L947.23 255.254C937.137 256.401 924.749 262.135 914.197 262.135V243.096ZM999.726 141.017H978.393C977.934 172.214 977.475 200.659 977.934 231.856C978.163 246.307 982.522 253.419 989.174 253.419C993.074 253.419 997.891 251.125 1003.17 246.307L1004.08 252.501C997.662 258.924 989.174 262.135 981.375 262.135C970.823 262.135 961.647 256.171 960.959 243.784C959.353 223.368 961.418 156.157 957.748 142.852C954.995 140.329 947.884 141.246 942.379 141.017V135.512C954.995 135.741 971.741 126.565 974.952 106.15L978.852 105.92L978.393 135.053V135.512H999.956L999.726 141.017ZM1074.03 163.497C1072.43 150.881 1065.32 136.429 1049.49 136.429C1031.37 136.429 1025.4 156.616 1023.11 171.297H1066.46C1071.28 171.297 1074.49 167.856 1074.03 163.497ZM1088.71 176.573H1022.42C1021.5 183.225 1021.5 189.418 1021.5 194.465C1021.5 225.203 1031.6 254.336 1053.39 254.336C1070.82 254.336 1085.27 236.902 1087.8 220.616L1092.61 221.304C1089.63 244.013 1071.74 263.741 1047.88 263.741C1018.52 263.741 1001.32 234.15 1001.32 194.465C1001.32 156.616 1019.9 130.465 1048.11 130.465C1071.74 130.465 1090.55 144.458 1093.07 171.297C1093.3 174.049 1091.47 176.573 1088.71 176.573Z" fill="white"/>
<defs>
<clipPath id="clip0_3_14">
<rect width="1140" height="374" fill="white"/>
</clipPath>
</defs>
</svg>
